<svg xmlns="http://www.w3.org/2000/svg" xmlns:xlink="http://www.w3.org/1999/xlink" width="2952" height="2264" viewBox="0 0 2952 2264"><defs><linearGradient id="g" x1="50%" x2="50%" y1="0%" y2="100%"><stop offset="0%" stop-color="#1F1F1F"/><stop offset="100%" stop-color="#373737"/></linearGradient><linearGradient id="h" x1="50%" x2="50%" y1="0%" y2="100%"><stop offset="0%" stop-color="#373738"/><stop offset="100%" stop-color="#373737"/></linearGradient><linearGradient id="i" x1="0%" x2="100%" y1="20.724%" y2="79.276%"><stop offset="0%" stop-color="#808182"/><stop offset="100%" stop-color="#797A7B"/></linearGradient><linearGradient id="j" x1="0%" x2="100%" y1="20.724%" y2="79.276%"><stop offset="0%" stop-color="#909192"/><stop offset="100%" stop-color="#767778"/></linearGradient><linearGradient id="k" x1="0%" x2="100%" y1="20.724%" y2="79.276%"><stop offset="0%" stop-color="#9C9C9C"/><stop offset="100%" stop-color="#7A7B7C"/></linearGradient><linearGradient id="l" x1="0%" x2="100%" y1="20.724%" y2="79.276%"><stop offset="0%" stop-color="#A6A7A8"/><stop offset="100%" stop-color="#7D7E7F"/></linearGradient><linearGradient id="m" x1="0%" x2="100%" y1="20.724%" y2="79.276%"><stop offset="0%" stop-color="#AEAFB0"/><stop offset="100%" stop-color="#88898A"/></linearGradient><linearGradient id="n" x1="0%" x2="100%" y1="20.724%" y2="79.276%"><stop offset="0%" stop-color="#B9BABB"/><stop offset="100%" stop-color="#8B8C8D"/></linearGradient><linearGradient id="o" x1="0%" x2="100%" y1="20.724%" y2="79.276%"><stop offset="0%" stop-color="#C8C9CA"/><stop offset="100%" stop-color="#9E9FA0"/></linearGradient><linearGradient id="p" x1="0%" x2="100%" y1="20.724%" y2="79.276%"><stop offset="0%" stop-color="#D4D5D6"/><stop offset="100%" stop-color="#A7A8A9"/></linearGradient><linearGradient id="q" x1="0%" x2="100%" y1="20.724%" y2="79.276%"><stop offset="0%" stop-color="#E6E7E8"/><stop offset="100%" stop-color="#B4B5B6"/></linearGradient><linearGradient id="r" x1="0%" x2="100%" y1="20.724%" y2="79.276%"><stop offset="0%" stop-color="#E4E5E6"/><stop offset="100%" stop-color="#ACADAE"/></linearGradient><linearGradient id="s" x1="50%" x2="50%" y1="0%" y2="100%"><stop offset="0%" stop-color="#8A8B8C"/><stop offset="100%" stop-color="#767777"/></linearGradient><linearGradient id="u" x1="50%" x2="50%" y1="0%" y2="100%"><stop offset="0%" stop-color="#BBBCBD"/><stop offset="20.732%" stop-color="#C6C7C8"/><stop offset="100%" stop-color="#6C6D6E"/></linearGradient><linearGradient id="z" x1="50%" x2="50%" y1="0%" y2="100%"><stop offset="0%" stop-color="#999A9A"/><stop offset="20.732%" stop-color="#B7B8B9"/><stop offset="100%" stop-color="#6C6D6E"/><stop offset="100%" stop-color="#6D6F71"/></linearGradient><linearGradient id="F" x1="50%" x2="50%" y1="0%" y2="100%"><stop offset="0%" stop-color="#131222"/><stop offset="100%" stop-color="#213042"/></linearGradient><linearGradient id="L" x1="0%" x2="100%" y1="0%" y2="100%"><stop offset="0%" stop-color="#050505"/><stop offset="7.866%" stop-color="#303030"/><stop offset="16.118%" stop-color="#050505"/><stop offset="24.327%" stop-color="#303030"/><stop offset="33.125%" stop-color="#050505"/><stop offset="41.023%" stop-color="#303030"/><stop offset="49.776%" stop-color="#050505"/><stop offset="57.655%" stop-color="#303030"/><stop offset="66.447%" stop-color="#050505"/><stop offset="74.799%" stop-color="#303030"/><stop offset="82.921%" stop-color="#050505"/><stop offset="90.937%" stop-color="#303030"/><stop offset="100%" stop-color="#050505"/></linearGradient><linearGradient id="M" x1="100%" x2="0%" y1="0%" y2="100%"><stop offset="0%" stop-color="#050505"/><stop offset="7.866%" stop-color="#303030"/><stop offset="16.118%" stop-color="#050505"/><stop offset="24.327%" stop-color="#303030"/><stop offset="33.125%" stop-color="#050505"/><stop offset="41.023%" stop-color="#303030"/><stop offset="49.776%" stop-color="#050505"/><stop offset="57.655%" stop-color="#303030"/><stop offset="66.447%" stop-color="#050505"/><stop offset="74.799%" stop-color="#303030"/><stop offset="82.921%" stop-color="#050505"/><stop offset="90.937%" stop-color="#303030"/><stop offset="100%" stop-color="#050505"/></linearGradient><filter id="b" width="450%" height="116.8%" x="-175%" y="-8.4%" filterUnits="objectBoundingBox"><feMorphology in="SourceAlpha" operator="dilate" radius="8" result="shadowSpreadInner1"/><feGaussianBlur in="shadowSpreadInner1" result="shadowBlurInner1" stdDeviation="2"/><feOffset dy="-18" in="shadowBlurInner1" result="shadowOffsetInner1"/><feComposite in="shadowOffsetInner1" in2="SourceAlpha" k2="-1" k3="1" operator="arithmetic" result="shadowInnerInner1"/><feColorMatrix in="shadowInnerInner1" result="shadowMatrixInner1" values="0 0 0 0 0.531589674 0 0 0 0 0.531589674 0 0 0 0 0.531589674 0 0 0 1 0"/><feMorphology in="SourceAlpha" operator="dilate" radius="2" result="shadowSpreadInner2"/><feGaussianBlur in="shadowSpreadInner2" result="shadowBlurInner2" stdDeviation="1"/><feOffset dy="-8" in="shadowBlurInner2" result="shadowOffsetInner2"/><feComposite in="shadowOffsetInner2" in2="SourceAlpha" k2="-1" k3="1" operator="arithmetic" result="shadowInnerInner2"/><feColorMatrix in="shadowInnerInner2" result="shadowMatrixInner2" values="0 0 0 0 0.963824728 0 0 0 0 0.963824728 0 0 0 0 0.963824728 0 0 0 1 0"/><feGaussianBlur in="SourceAlpha" result="shadowBlurInner3" stdDeviation="1"/><feOffset dx="1" in="shadowBlurInner3" result="shadowOffsetInner3"/><feComposite in="shadowOffsetInner3" in2="SourceAlpha" k2="-1" k3="1" operator="arithmetic" result="shadowInnerInner3"/><feColorMatrix in="shadowInnerInner3" result="shadowMatrixInner3" values="0 0 0 0 0.283740942 0 0 0 0 0.283740942 0 0 0 0 0.283740942 0 0 0 1 0"/><feMorphology in="SourceAlpha" operator="dilate" radius="5" result="shadowSpreadInner4"/><feGaussianBlur in="shadowSpreadInner4" result="shadowBlurInner4" stdDeviation="3"/><feOffset dy="20" in="shadowBlurInner4" result="shadowOffsetInner4"/><feComposite in="shadowOffsetInner4" in2="SourceAlpha" k2="-1" k3="1" operator="arithmetic" result="shadowInnerInner4"/><feColorMatrix in="shadowInnerInner4" result="shadowMatrixInner4" values="0 0 0 0 0.459890172 0 0 0 0 0.459890172 0 0 0 0 0.459890172 0 0 0 1 0"/><feMorphology in="SourceAlpha" operator="dilate" radius="6" result="shadowSpreadInner5"/><feGaussianBlur in="shadowSpreadInner5" result="shadowBlurInner5" stdDeviation="1.5"/><feOffset dy="11" in="shadowBlurInner5" result="shadowOffsetInner5"/><feComposite in="shadowOffsetInner5" in2="SourceAlpha" k2="-1" k3="1" operator="arithmetic" result="shadowInnerInner5"/><feColorMatrix in="shadowInnerInner5" result="shadowMatrixInner5" values="0 0 0 0 0.902032382 0 0 0 0 0.902032382 0 0 0 0 0.902032382 0 0 0 1 0"/><feMorphology in="SourceAlpha" operator="dilate" radius="2" result="shadowSpreadInner6"/><feGaussianBlur in="shadowSpreadInner6" result="shadowBlurInner6" stdDeviation="1"/><feOffset dy="4" in="shadowBlurInner6" result="shadowOffsetInner6"/><feComposite in="shadowOffsetInner6" in2="SourceAlpha" k2="-1" k3="1" operator="arithmetic" result="shadowInnerInner6"/><feColorMatrix in="shadowInnerInner6" result="shadowMatrixInner6" values="0 0 0 0 0.509803922 0 0 0 0 0.509803922 0 0 0 0 0.509803922 0 0 0 1 0"/><feMorphology in="SourceAlpha" operator="dilate" radius="2" result="shadowSpreadInner7"/><feGaussianBlur in="shadowSpreadInner7" result="shadowBlurInner7" stdDeviation="2"/><feOffset dy="-4" in="shadowBlurInner7" result="shadowOffsetInner7"/><feComposite in="shadowOffsetInner7" in2="SourceAlpha" k2="-1" k3="1" operator="arithmetic" result="shadowInnerInner7"/><feColorMatrix in="shadowInnerInner7" result="shadowMatrixInner7" values="0 0 0 0 0.218127264 0 0 0 0 0.218127264 0 0 0 0 0.218127264 0 0 0 1 0"/><feGaussianBlur in="SourceAlpha" result="shadowBlurInner8" stdDeviation="1"/><feOffset dx="-2" in="shadowBlurInner8" result="shadowOffsetInner8"/><feComposite in="shadowOffsetInner8" in2="SourceAlpha" k2="-1" k3="1" operator="arithmetic" result="shadowInnerInner8"/><feColorMatrix in="shadowInnerInner8" result="shadowMatrixInner8" values="0 0 0 0 0.749207428 0 0 0 0 0.749207428 0 0 0 0 0.749207428 0 0 0 1 0"/><feGaussianBlur in="SourceAlpha" result="shadowBlurInner9" stdDeviation="1"/><feOffset dx="-1" in="shadowBlurInner9" result="shadowOffsetInner9"/><feComposite in="shadowOffsetInner9" in2="SourceAlpha" k2="-1" k3="1" operator="arithmetic" result="shadowInnerInner9"/><feColorMatrix in="shadowInnerInner9" result="shadowMatrixInner9" values="0 0 0 0 0.723986639 0 0 0 0 0.723986639 0 0 0 0 0.723986639 0 0 0 0.25 0"/><feMerge><feMergeNode in="shadowMatrixInner1"/><feMergeNode in="shadowMatrixInner2"/><feMergeNode in="shadowMatrixInner3"/><feMergeNode in="shadowMatrixInner4"/><feMergeNode in="shadowMatrixInner5"/><feMergeNode in="shadowMatrixInner6"/><feMergeNode in="shadowMatrixInner7"/><feMergeNode in="shadowMatrixInner8"/><feMergeNode in="shadowMatrixInner9"/></feMerge></filter><filter id="d" width="550%" height="125.7%" x="-225%" y="-12.9%" filterUnits="objectBoundingBox"><feMorphology in="SourceAlpha" operator="dilate" radius="2" result="shadowSpreadInner1"/><feGaussianBlur in="shadowSpreadInner1" result="shadowBlurInner1" stdDeviation="1"/><feOffset dx="-5" dy="18" in="shadowBlurInner1" result="shadowOffsetInner1"/><feComposite in="shadowOffsetInner1" in2="SourceAlpha" k2="-1" k3="1" operator="arithmetic" result="shadowInnerInner1"/><feColorMatrix in="shadowInnerInner1" result="shadowMatrixInner1" values="0 0 0 0 1 0 0 0 0 1 0 0 0 0 1 0 0 0 1 0"/><feGaussianBlur in="SourceAlpha" result="shadowBlurInner2" stdDeviation="1"/><feOffset dx="1" in="shadowBlurInner2" result="shadowOffsetInner2"/><feComposite in="shadowOffsetInner2" in2="SourceAlpha" k2="-1" k3="1" operator="arithmetic" result="shadowInnerInner2"/><feColorMatrix in="shadowInnerInner2" result="shadowMatrixInner2" values="0 0 0 0 0.283740942 0 0 0 0 0.283740942 0 0 0 0 0.283740942 0 0 0 1 0"/><feMorphology in="SourceAlpha" operator="dilate" radius="2" result="shadowSpreadInner3"/><feGaussianBlur in="shadowSpreadInner3" result="shadowBlurInner3" stdDeviation="1"/><feOffset dy="4" in="shadowBlurInner3" result="shadowOffsetInner3"/><feComposite in="shadowOffsetInner3" in2="SourceAlpha" k2="-1" k3="1" operator="arithmetic" result="shadowInnerInner3"/><feColorMatrix in="shadowInnerInner3" result="shadowMatrixInner3" values="0 0 0 0 0.509803922 0 0 0 0 0.509803922 0 0 0 0 0.509803922 0 0 0 1 0"/><feMorphology in="SourceAlpha" operator="dilate" radius="2" result="shadowSpreadInner4"/><feGaussianBlur in="shadowSpreadInner4" result="shadowBlurInner4" stdDeviation="1"/><feOffset dx="-1" dy="-4" in="shadowBlurInner4" result="shadowOffsetInner4"/><feComposite in="shadowOffsetInner4" in2="SourceAlpha" k2="-1" k3="1" operator="arithmetic" result="shadowInnerInner4"/><feColorMatrix in="shadowInnerInner4" result="shadowMatrixInner4" values="0 0 0 0 0 0 0 0 0 0 0 0 0 0 0 0 0 0 1 0"/><feMorphology in="SourceAlpha" operator="dilate" radius="14" result="shadowSpreadInner5"/><feGaussianBlur in="shadowSpreadInner5" result="shadowBlurInner5" stdDeviation="8"/><feOffset dy="-25" in="shadowBlurInner5" result="shadowOffsetInner5"/><feComposite in="shadowOffsetInner5" in2="SourceAlpha" k2="-1" k3="1" operator="arithmetic" result="shadowInnerInner5"/><feColorMatrix in="shadowInnerInner5" result="shadowMatrixInner5" values="0 0 0 0 0.399739583 0 0 0 0 0.388405504 0 0 0 0 0.388405504 0 0 0 1 0"/><feGaussianBlur in="SourceAlpha" result="shadowBlurInner6" stdDeviation="1"/><feOffset dx="-1" in="shadowBlurInner6" result="shadowOffsetInner6"/><feComposite in="shadowOffsetInner6" in2="SourceAlpha" k2="-1" k3="1" operator="arithmetic" result="shadowInnerInner6"/><feColorMatrix in="shadowInnerInner6" result="shadowMatrixInner6" values="0 0 0 0 0.749207428 0 0 0 0 0.749207428 0 0 0 0 0.749207428 0 0 0 1 0"/><feGaussianBlur in="SourceAlpha" result="shadowBlurInner7" stdDeviation="1"/><feOffset dx="-1" in="shadowBlurInner7" result="shadowOffsetInner7"/><feComposite in="shadowOffsetInner7" in2="SourceAlpha" k2="-1" k3="1" operator="arithmetic" result="shadowInnerInner7"/><feColorMatrix in="shadowInnerInner7" result="shadowMatrixInner7" values="0 0 0 0 0.723986639 0 0 0 0 0.723986639 0 0 0 0 0.723986639 0 0 0 0.25 0"/><feMerge><feMergeNode in="shadowMatrixInner1"/><feMergeNode in="shadowMatrixInner2"/><feMergeNode in="shadowMatrixInner3"/><feMergeNode in="shadowMatrixInner4"/><feMergeNode in="shadowMatrixInner5"/><feMergeNode in="shadowMatrixInner6"/><feMergeNode in="shadowMatrixInner7"/></feMerge></filter><filter id="f" width="550%" height="126%" x="-225%" y="-13%" filterUnits="objectBoundingBox"><feMorphology in="SourceAlpha" operator="dilate" radius="2" result="shadowSpreadInner1"/><feGaussianBlur in="shadowSpreadInner1" result="shadowBlurInner1" stdDeviation="1"/><feOffset dx="-5" dy="18" in="shadowBlurInner1" result="shadowOffsetInner1"/><feComposite in="shadowOffsetInner1" in2="SourceAlpha" k2="-1" k3="1" operator="arithmetic" result="shadowInnerInner1"/><feColorMatrix in="shadowInnerInner1" result="shadowMatrixInner1" values="0 0 0 0 1 0 0 0 0 1 0 0 0 0 1 0 0 0 1 0"/><feGaussianBlur in="SourceAlpha" result="shadowBlurInner2" stdDeviation="1"/><feOffset dx="1" in="shadowBlurInner2" result="shadowOffsetInner2"/><feComposite in="shadowOffsetInner2" in2="SourceAlpha" k2="-1" k3="1" operator="arithmetic" result="shadowInnerInner2"/><feColorMatrix in="shadowInnerInner2" result="shadowMatrixInner2" values="0 0 0 0 0.283740942 0 0 0 0 0.283740942 0 0 0 0 0.283740942 0 0 0 1 0"/><feMorphology in="SourceAlpha" operator="dilate" radius="2" result="shadowSpreadInner3"/><feGaussianBlur in="shadowSpreadInner3" result="shadowBlurInner3" stdDeviation="1"/><feOffset dy="4" in="shadowBlurInner3" result="shadowOffsetInner3"/><feComposite in="shadowOffsetInner3" in2="SourceAlpha" k2="-1" k3="1" operator="arithmetic" result="shadowInnerInner3"/><feColorMatrix in="shadowInnerInner3" result="shadowMatrixInner3" values="0 0 0 0 0.509803922 0 0 0 0 0.509803922 0 0 0 0 0.509803922 0 0 0 1 0"/><feMorphology in="SourceAlpha" operator="dilate" radius="2" result="shadowSpreadInner4"/><feGaussianBlur in="shadowSpreadInner4" result="shadowBlurInner4" stdDeviation="1"/><feOffset dx="-1" dy="-4" in="shadowBlurInner4" result="shadowOffsetInner4"/><feComposite in="shadowOffsetInner4" in2="SourceAlpha" k2="-1" k3="1" operator="arithmetic" result="shadowInnerInner4"/><feColorMatrix in="shadowInnerInner4" result="shadowMatrixInner4" values="0 0 0 0 0 0 0 0 0 0 0 0 0 0 0 0 0 0 1 0"/><feMorphology in="SourceAlpha" operator="dilate" radius="14" result="shadowSpreadInner5"/><feGaussianBlur in="shadowSpreadInner5" result="shadowBlurInner5" stdDeviation="8"/><feOffset dy="-25" in="shadowBlurInner5" result="shadowOffsetInner5"/><feComposite in="shadowOffsetInner5" in2="SourceAlpha" k2="-1" k3="1" operator="arithmetic" result="shadowInnerInner5"/><feColorMatrix in="shadowInnerInner5" result="shadowMatrixInner5" values="0 0 0 0 0.399739583 0 0 0 0 0.388405504 0 0 0 0 0.388405504 0 0 0 1 0"/><feGaussianBlur in="SourceAlpha" result="shadowBlurInner6" stdDeviation="1"/><feOffset dx="-1" in="shadowBlurInner6" result="shadowOffsetInner6"/><feComposite in="shadowOffsetInner6" in2="SourceAlpha" k2="-1" k3="1" operator="arithmetic" result="shadowInnerInner6"/><feColorMatrix in="shadowInnerInner6" result="shadowMatrixInner6" values="0 0 0 0 0.749207428 0 0 0 0 0.749207428 0 0 0 0 0.749207428 0 0 0 1 0"/><feGaussianBlur in="SourceAlpha" result="shadowBlurInner7" stdDeviation="1"/><feOffset dx="-1" in="shadowBlurInner7" result="shadowOffsetInner7"/><feComposite in="shadowOffsetInner7" in2="SourceAlpha" k2="-1" k3="1" operator="arithmetic" result="shadowInnerInner7"/><feColorMatrix in="shadowInnerInner7" result="shadowMatrixInner7" values="0 0 0 0 0.723986639 0 0 0 0 0.723986639 0 0 0 0 0.723986639 0 0 0 0.25 0"/><feMerge><feMergeNode in="shadowMatrixInner1"/><feMergeNode in="shadowMatrixInner2"/><feMergeNode in="shadowMatrixInner3"/><feMergeNode in="shadowMatrixInner4"/><feMergeNode in="shadowMatrixInner5"/><feMergeNode in="shadowMatrixInner6"/><feMergeNode in="shadowMatrixInner7"/></feMerge></filter><filter id="v" width="116.7%" height="120%" x="-8.3%" y="-10%" filterUnits="objectBoundingBox"><feMorphology in="SourceAlpha" operator="dilate" radius="1" result="shadowSpreadInner1"/><feGaussianBlur in="shadowSpreadInner1" result="shadowBlurInner1" stdDeviation="1"/><feOffset dx="-2" in="shadowBlurInner1" result="shadowOffsetInner1"/><feComposite in="shadowOffsetInner1" in2="SourceAlpha" k2="-1" k3="1" operator="arithmetic" result="shadowInnerInner1"/><feColorMatrix in="shadowInnerInner1" result="shadowMatrixInner1" values="0 0 0 0 0 0 0 0 0 0 0 0 0 0 0 0 0 0 0.1 0"/><feMorphology in="SourceAlpha" operator="dilate" radius="1" result="shadowSpreadInner2"/><feGaussianBlur in="shadowSpreadInner2" result="shadowBlurInner2" stdDeviation="1"/><feOffset dx="2" in="shadowBlurInner2" result="shadowOffsetInner2"/><feComposite in="shadowOffsetInner2" in2="SourceAlpha" k2="-1" k3="1" operator="arithmetic" result="shadowInnerInner2"/><feColorMatrix in="shadowInnerInner2" result="shadowMatrixInner2" values="0 0 0 0 0 0 0 0 0 0 0 0 0 0 0 0 0 0 0.1 0"/><feMerge><feMergeNode in="shadowMatrixInner1"/><feMergeNode in="shadowMatrixInner2"/></feMerge></filter><filter id="x" width="116.7%" height="120%" x="-8.3%" y="-10%" filterUnits="objectBoundingBox"><feMorphology in="SourceAlpha" operator="dilate" radius="1" result="shadowSpreadInner1"/><feGaussianBlur in="shadowSpreadInner1" result="shadowBlurInner1" stdDeviation="1"/><feOffset dx="-2" in="shadowBlurInner1" result="shadowOffsetInner1"/><feComposite in="shadowOffsetInner1" in2="SourceAlpha" k2="-1" k3="1" operator="arithmetic" result="shadowInnerInner1"/><feColorMatrix in="shadowInnerInner1" result="shadowMatrixInner1" values="0 0 0 0 0 0 0 0 0 0 0 0 0 0 0 0 0 0 0.1 0"/><feMorphology in="SourceAlpha" operator="dilate" radius="1" result="shadowSpreadInner2"/><feGaussianBlur in="shadowSpreadInner2" result="shadowBlurInner2" stdDeviation="1"/><feOffset dx="2" in="shadowBlurInner2" result="shadowOffsetInner2"/><feComposite in="shadowOffsetInner2" in2="SourceAlpha" k2="-1" k3="1" operator="arithmetic" result="shadowInnerInner2"/><feColorMatrix in="shadowInnerInner2" result="shadowMatrixInner2" values="0 0 0 0 0 0 0 0 0 0 0 0 0 0 0 0 0 0 0.1 0"/><feMerge><feMergeNode in="shadowMatrixInner1"/><feMergeNode in="shadowMatrixInner2"/></feMerge></filter><filter id="A" width="116.7%" height="118.8%" x="-8.3%" y="-9.4%" filterUnits="objectBoundingBox"><feMorphology in="SourceAlpha" operator="dilate" radius="1" result="shadowSpreadInner1"/><feGaussianBlur in="shadowSpreadInner1" result="shadowBlurInner1" stdDeviation="1"/><feOffset dx="-2" in="shadowBlurInner1" result="shadowOffsetInner1"/><feComposite in="shadowOffsetInner1" in2="SourceAlpha" k2="-1" k3="1" operator="arithmetic" result="shadowInnerInner1"/><feColorMatrix in="shadowInnerInner1" result="shadowMatrixInner1" values="0 0 0 0 0 0 0 0 0 0 0 0 0 0 0 0 0 0 0.1 0"/><feMorphology in="SourceAlpha" operator="dilate" radius="1" result="shadowSpreadInner2"/><feGaussianBlur in="shadowSpreadInner2" result="shadowBlurInner2" stdDeviation="1"/><feOffset dx="2" in="shadowBlurInner2" result="shadowOffsetInner2"/><feComposite in="shadowOffsetInner2" in2="SourceAlpha" k2="-1" k3="1" operator="arithmetic" result="shadowInnerInner2"/><feColorMatrix in="shadowInnerInner2" result="shadowMatrixInner2" values="0 0 0 0 0 0 0 0 0 0 0 0 0 0 0 0 0 0 0.1 0"/><feMerge><feMergeNode in="shadowMatrixInner1"/><feMergeNode in="shadowMatrixInner2"/></feMerge></filter><filter id="C" width="116.7%" height="118.8%" x="-8.3%" y="-9.4%" filterUnits="objectBoundingBox"><feMorphology in="SourceAlpha" operator="dilate" radius="1" result="shadowSpreadInner1"/><feGaussianBlur in="shadowSpreadInner1" result="shadowBlurInner1" stdDeviation="1"/><feOffset dx="-2" in="shadowBlurInner1" result="shadowOffsetInner1"/><feComposite in="shadowOffsetInner1" in2="SourceAlpha" k2="-1" k3="1" operator="arithmetic" result="shadowInnerInner1"/><feColorMatrix in="shadowInnerInner1" result="shadowMatrixInner1" values="0 0 0 0 0 0 0 0 0 0 0 0 0 0 0 0 0 0 0.1 0"/><feMorphology in="SourceAlpha" operator="dilate" radius="1" result="shadowSpreadInner2"/><feGaussianBlur in="shadowSpreadInner2" result="shadowBlurInner2" stdDeviation="1"/><feOffset dx="2" in="shadowBlurInner2" result="shadowOffsetInner2"/><feComposite in="shadowOffsetInner2" in2="SourceAlpha" k2="-1" k3="1" operator="arithmetic" result="shadowInnerInner2"/><feColorMatrix in="shadowInnerInner2" result="shadowMatrixInner2" values="0 0 0 0 0 0 0 0 0 0 0 0 0 0 0 0 0 0 0.1 0"/><feMerge><feMergeNode in="shadowMatrixInner1"/><feMergeNode in="shadowMatrixInner2"/></feMerge></filter><filter id="E" width="207.1%" height="207.1%" x="-53.6%" y="-53.6%" filterUnits="objectBoundingBox"><feOffset in="SourceAlpha" result="shadowOffsetOuter1"/><feGaussianBlur in="shadowOffsetOuter1" result="shadowBlurOuter1" stdDeviation="2.5"/><feColorMatrix in="shadowBlurOuter1" values="0 0 0 0 0.105882353 0 0 0 0 0.0941176471 0 0 0 0 0.180392157 0 0 0 1 0"/></filter><filter id="J" width="135%" height="135%" x="-17.5%" y="-17.5%" filterUnits="objectBoundingBox"><feMorphology in="SourceAlpha" radius="1.5" result="shadowSpreadInner1"/><feGaussianBlur in="shadowSpreadInner1" result="shadowBlurInner1" stdDeviation="1"/><feOffset in="shadowBlurInner1" result="shadowOffsetInner1"/><feComposite in="shadowOffsetInner1" in2="SourceAlpha" k2="-1" k3="1" operator="arithmetic" result="shadowInnerInner1"/><feColorMatrix in="shadowInnerInner1" values="0 0 0 0 0.0196078431 0 0 0 0 0.0235294118 0 0 0 0 0.0784313725 0 0 0 1 0"/></filter><rect id="t" width="18" height="15" x="133" y="0"/><rect id="w" width="18" height="15" x="2777" y="0"/><rect id="y" width="18" height="16" x="133" y="2224"/><rect id="B" width="18" height="16" x="2777" y="2224"/><circle id="D" cx="13" cy="13" r="7"/><circle id="G" cx="13" cy="13" r="5"/><circle id="K" cx="193.5" cy="12.5" r="4.5"/><path id="a" d="M0,151.5 L4,151.5 C5.1045695,151.5 6,152.395431 6,153.5 L6,274.5 C6,275.604569 5.1045695,276.5 4,276.5 L0,276.5 L0,276.5 L0,151.5 Z"/><path id="c" d="M255,-49.5 L259,-49.5 C260.104569,-49.5 261,-48.6045695 261,-47.5 L261,53.5 C261,54.6045695 260.104569,55.5 259,55.5 L255,55.5 L255,55.5 L255,-49.5 Z"/><path id="e" d="M381,-49 L385,-49 C386.104569,-49 387,-48.1045695 387,-47 L387,53 C387,54.1045695 386.104569,55 385,55 L381,55 L381,55 L381,-49 Z"/><radialGradient id="H" cx="50%" cy="0%" r="53.12%" fx="50%" fy="0%"><stop offset="0%" stop-color="#4C74CA"/><stop offset="22.187%" stop-color="#9CA4E3"/><stop offset="41.526%" stop-color="#9F92E6"/><stop offset="83.303%" stop-color="#1C4373"/><stop offset="100%" stop-color="#00203D"/></radialGradient><radialGradient id="I" cx="50%" cy="87.023%" r="48.92%" fx="50%" fy="87.023%" gradientTransform="matrix(.21395 -.97684 1.05255 .23053 -.523 1.158)"><stop offset="0%" stop-color="#D0A1FF"/><stop offset="10.424%" stop-color="#C087FD"/><stop offset="18.423%" stop-color="#9E74E1"/><stop offset="26.451%" stop-color="#205396"/><stop offset="36.294%" stop-color="#00384C"/><stop offset="48.872%" stop-color="#02364C"/><stop offset="63.874%" stop-color="#002642"/><stop offset="100%" stop-color="#00263F" stop-opacity="0"/></radialGradient></defs><g fill="none" fill-rule="evenodd" transform="translate(7 7)"><g transform="rotate(180 3 214)"><use xlink:href="#a" fill="#EDECEC"/><use xlink:href="#a" fill="#000" filter="url(#b)"/></g><g transform="rotate(-90 258 3)"><use xlink:href="#c" fill="#EDECEC"/><use xlink:href="#c" fill="#000" filter="url(#d)"/></g><g transform="rotate(-90 384 3)"><use xlink:href="#e" fill="#EDECEC"/><use xlink:href="#e" fill="#000" filter="url(#f)"/></g><g transform="translate(4 4)"><path fill="#000" stroke="url(#g)" stroke-linejoin="square" stroke-width="13" d="M2850.19804,25.7667386 C2873.50973,38.2339718 2891.76603,56.4902654 2904.23326,79.8019648 C2918.51788,106.51188 2923.5,132.311414 2923.5,192.29139 L2923.5,2049.70861 C2923.5,2109.68859 2918.51788,2135.48812 2904.23326,2162.19804 C2891.76603,2185.50973 2873.50973,2203.76603 2850.19804,2216.23326 C2823.48812,2230.51788 2797.68859,2235.5 2737.70861,2235.5 L192.29139,2235.5 C132.311414,2235.5 106.51188,2230.51788 79.8019648,2216.23326 C56.4902654,2203.76603 38.2339718,2185.50973 25.7667386,2162.19804 C11.4821199,2135.48812 6.5,2109.68859 6.5,2049.70861 L6.5,192.29139 C6.5,132.311414 11.4821199,106.51188 25.7667386,79.8019648 C38.2339718,56.4902654 56.4902654,38.2339718 79.8019648,25.7667386 C106.51188,11.4821199 132.311414,6.5 192.29139,6.5 L2737.70861,6.5 C2797.68859,6.5 2823.48812,11.4821199 2850.19804,25.7667386 Z"/><path stroke="url(#h)" stroke-linejoin="square" stroke-width="12" d="M2850.43383,25.325832 C2873.83267,37.8396651 2892.16033,56.1673318 2904.67417,79.5661654 C2919.00282,106.358418 2924,132.235931 2924,192.29139 L2924,2049.70861 C2924,2109.76407 2919.00282,2135.64158 2904.67417,2162.43383 C2892.16033,2185.83267 2873.83267,2204.16033 2850.43383,2216.67417 C2823.64158,2231.00282 2797.76407,2236 2737.70861,2236 L192.29139,2236 C132.235931,2236 106.358418,2231.00282 79.5661654,2216.67417 C56.1673318,2204.16033 37.8396651,2185.83267 25.325832,2162.43383 C10.9971783,2135.64158 6,2109.76407 6,2049.70861 L6,192.29139 C6,132.235931 10.9971783,106.358418 25.325832,79.5661654 C37.8396651,56.1673318 56.1673318,37.8396651 79.5661654,25.325832 C106.358418,10.9971783 132.235931,6 192.29139,6 L2737.70861,6 C2797.76407,6 2823.64158,10.9971783 2850.43383,25.325832 Z"/><path stroke="url(#i)" stroke-linejoin="square" stroke-width="11" d="M2850.66963,24.8849254 C2874.1556,37.4453584 2892.55464,55.8443981 2905.11507,79.330366 C2919.48776,106.204957 2924.5,132.160449 2924.5,192.29139 L2924.5,2049.70861 C2924.5,2109.83955 2919.48776,2135.79504 2905.11507,2162.66963 C2892.55464,2186.1556 2874.1556,2204.55464 2850.66963,2217.11507 C2823.79504,2231.48776 2797.83955,2236.5 2737.70861,2236.5 L192.29139,2236.5 C132.160449,2236.5 106.204957,2231.48776 79.330366,2217.11507 C55.8443981,2204.55464 37.4453584,2186.1556 24.8849254,2162.66963 C10.5122367,2135.79504 5.5,2109.83955 5.5,2049.70861 L5.5,192.29139 C5.5,132.160449 10.5122367,106.204957 24.8849254,79.330366 C37.4453584,55.8443981 55.8443981,37.4453584 79.330366,24.8849254 C106.204957,10.5122367 132.160449,5.5 192.29139,5.5 L2737.70861,5.5 C2797.83955,5.5 2823.79504,10.5122367 2850.66963,24.8849254 Z"/><path stroke="url(#j)" stroke-linejoin="square" stroke-width="10" d="M2850.90543,24.4440188 C2874.47854,37.0510517 2892.94895,55.5214645 2905.55598,79.0945665 C2919.9727,106.051496 2925,132.084967 2925,192.29139 L2925,2049.70861 C2925,2109.91503 2919.9727,2135.9485 2905.55598,2162.90543 C2892.94895,2186.47854 2874.47854,2204.94895 2850.90543,2217.55598 C2823.9485,2231.9727 2797.91503,2237 2737.70861,2237 L192.29139,2237 C132.084967,2237 106.051496,2231.9727 79.0945665,2217.55598 C55.5214645,2204.94895 37.0510517,2186.47854 24.4440188,2162.90543 C10.0272951,2135.9485 5,2109.91503 5,2049.70861 L5,192.29139 C5,132.084967 10.0272951,106.051496 24.4440188,79.0945665 C37.0510517,55.5214645 55.5214645,37.0510517 79.0945665,24.4440188 C106.051496,10.0272951 132.084967,5 192.29139,5 L2737.70861,5 C2797.91503,5 2823.9485,10.0272951 2850.90543,24.4440188 Z"/><path stroke="url(#k)" stroke-linejoin="square" stroke-width="9" d="M2851.14123,24.0031122 C2874.80147,36.656745 2893.34325,55.1985308 2905.99689,78.8587671 C2920.45765,105.898035 2925.5,132.009484 2925.5,192.29139 L2925.5,2049.70861 C2925.5,2109.99052 2920.45765,2136.10197 2905.99689,2163.14123 C2893.34325,2186.80147 2874.80147,2205.34325 2851.14123,2217.99689 C2824.10197,2232.45765 2797.99052,2237.5 2737.70861,2237.5 L192.29139,2237.5 C132.009484,2237.5 105.898035,2232.45765 78.8587671,2217.99689 C55.1985308,2205.34325 36.656745,2186.80147 24.0031122,2163.14123 C9.54235346,2136.10197 4.5,2109.99052 4.5,2049.70861 L4.5,192.29139 C4.5,132.009484 9.54235346,105.898035 24.0031122,78.8587671 C36.656745,55.1985308 55.1985308,36.656745 78.8587671,24.0031122 C105.898035,9.54235346 132.009484,4.5 192.29139,4.5 L2737.70861,4.5 C2797.99052,4.5 2824.10197,9.54235346 2851.14123,24.0031122 Z"/><path stroke="url(#l)" stroke-linejoin="square" stroke-width="8" d="M2851.37703,23.5622056 C2875.1244,36.2624383 2893.73756,54.8755971 2906.43779,78.6229677 C2920.94259,105.744574 2926,131.934002 2926,192.29139 L2926,2049.70861 C2926,2110.066 2920.94259,2136.25543 2906.43779,2163.37703 C2893.73756,2187.1244 2875.1244,2205.73756 2851.37703,2218.43779 C2824.25543,2232.94259 2798.066,2238 2737.70861,2238 L192.29139,2238 C131.934002,2238 105.744574,2232.94259 78.6229677,2218.43779 C54.8755971,2205.73756 36.2624383,2187.1244 23.5622056,2163.37703 C9.05741186,2136.25543 4,2110.066 4,2049.70861 L4,192.29139 C4,131.934002 9.05741186,105.744574 23.5622056,78.6229677 C36.2624383,54.8755971 54.8755971,36.2624383 78.6229677,23.5622056 C105.744574,9.05741186 131.934002,4 192.29139,4 L2737.70861,4 C2798.066,4 2824.25543,9.05741186 2851.37703,23.5622056 Z"/><path stroke="url(#m)" stroke-linejoin="square" stroke-width="7" d="M2851.61283,23.121299 C2875.44734,35.8681316 2894.13187,54.5526635 2906.8787,78.3871682 C2921.42753,105.591113 2926.5,131.85852 2926.5,192.29139 L2926.5,2049.70861 C2926.5,2110.14148 2921.42753,2136.40889 2906.8787,2163.61283 C2894.13187,2187.44734 2875.44734,2206.13187 2851.61283,2218.8787 C2824.40889,2233.42753 2798.14148,2238.5 2737.70861,2238.5 L192.29139,2238.5 C131.85852,2238.5 105.591113,2233.42753 78.3871682,2218.8787 C54.5526635,2206.13187 35.8681316,2187.44734 23.121299,2163.61283 C8.57247025,2136.40889 3.5,2110.14148 3.5,2049.70861 L3.5,192.29139 C3.5,131.85852 8.57247025,105.591113 23.121299,78.3871682 C35.8681316,54.5526635 54.5526635,35.8681316 78.3871682,23.121299 C105.591113,8.57247025 131.85852,3.5 192.29139,3.5 L2737.70861,3.5 C2798.14148,3.5 2824.40889,8.57247025 2851.61283,23.121299 Z"/><path stroke="url(#n)" stroke-linejoin="square" stroke-width="6" d="M2851.84863,22.6803924 C2875.77027,35.4738249 2894.52618,54.2297298 2907.31961,78.1513688 C2921.91247,105.437652 2927,131.783037 2927,192.29139 L2927,2049.70861 C2927,2110.21696 2921.91247,2136.56235 2907.31961,2163.84863 C2894.52618,2187.77027 2875.77027,2206.52618 2851.84863,2219.31961 C2824.56235,2233.91247 2798.21696,2239 2737.70861,2239 L192.29139,2239 C131.783037,2239 105.437652,2233.91247 78.1513688,2219.31961 C54.2297298,2206.52618 35.4738249,2187.77027 22.6803924,2163.84863 C8.08752865,2136.56235 3,2110.21696 3,2049.70861 L3,192.29139 C3,131.783037 8.08752865,105.437652 22.6803924,78.1513688 C35.4738249,54.2297298 54.2297298,35.4738249 78.1513688,22.6803924 C105.437652,8.08752865 131.783037,3 192.29139,3 L2737.70861,3 C2798.21696,3 2824.56235,8.08752865 2851.84863,22.6803924 Z"/><path stroke="url(#o)" stroke-linejoin="square" stroke-width="5" d="M2846.95532,19.6057176 L2852.08443,22.2394871 C2876.0932,35.0795182 2894.92048,53.9067961 2907.76051,77.9155694 C2922.39741,105.28419 2927.5,131.707555 2927.5,192.29139 L2927.5,2049.70861 C2927.5,2110.29245 2922.39741,2136.71581 2907.76051,2164.08443 C2894.92048,2188.0932 2876.0932,2206.92048 2852.08443,2219.76051 C2824.71581,2234.39741 2798.29245,2239.5 2737.70861,2239.5 L192.29139,2239.5 C131.707555,2239.5 105.28419,2234.39741 77.9155694,2219.76051 C53.9067961,2206.92048 35.0795182,2188.0932 22.2394858,2164.08443 C7.60258705,2136.71581 2.5,2110.29245 2.5,2049.70861 L2.5,192.29139 C2.5,131.707555 7.60258705,105.28419 22.2394858,77.9155694 C35.0795182,53.9067961 53.9067961,35.0795182 77.9155694,22.2394858 C105.28419,7.60258705 131.707555,2.5 192.29139,2.5 L2737.70861,2.5 C2794.50596,2.5 2821.27945,6.98469565 2846.95532,19.6057176 Z"/><path stroke="url(#p)" stroke-linejoin="square" stroke-width="4" d="M2852.32023,21.7985792 C2876.41614,34.6852115 2895.31479,53.5838625 2908.20142,77.67977 C2922.88235,105.130729 2928,131.632073 2928,192.29139 L2928,2049.70861 C2928,2110.36793 2922.88235,2136.86927 2908.20142,2164.32023 C2895.31479,2188.41614 2876.41614,2207.31479 2852.32023,2220.20142 C2824.86927,2234.88235 2798.36793,2240 2737.70861,2240 L192.29139,2240 C131.632073,2240 105.130729,2234.88235 77.67977,2220.20142 C53.5838625,2207.31479 34.6852115,2188.41614 21.7985792,2164.32023 C7.11764544,2136.86927 2,2110.36793 2,2049.70861 L2,192.29139 C2,131.632073 7.11764544,105.130729 21.7985792,77.67977 C34.6852115,53.5838625 53.5838625,34.6852115 77.67977,21.7985792 C105.130729,7.11764544 131.632073,2 192.29139,2 L2737.70861,2 C2798.36793,2 2824.86927,7.11764544 2852.32023,21.7985792 Z"/><path stroke="url(#q)" stroke-linejoin="square" stroke-width="3" d="M2852.55603,21.3576726 C2876.73907,34.2909048 2895.7091,53.2609288 2908.64233,77.4439705 C2923.3673,104.977268 2928.5,131.55659 2928.5,192.29139 L2928.5,2049.70861 C2928.5,2110.44341 2923.3673,2137.02273 2908.64233,2164.55603 C2895.7091,2188.73907 2876.73907,2207.7091 2852.55603,2220.64233 C2825.02273,2235.3673 2798.44341,2240.5 2737.70861,2240.5 L192.29139,2240.5 C131.55659,2240.5 104.977268,2235.3673 77.4439705,2220.64233 C53.2609288,2207.7091 34.2909048,2188.73907 21.3576726,2164.55603 C6.63270384,2137.02273 1.5,2110.44341 1.5,2049.70861 L1.5,192.29139 C1.5,131.55659 6.63270384,104.977268 21.3576726,77.4439705 C34.2909048,53.2609288 53.2609288,34.2909048 77.4439705,21.3576726 C104.977268,6.63270384 131.55659,1.5 192.29139,1.5 L2737.70861,1.5 C2798.44341,1.5 2825.02273,6.63270384 2852.55603,21.3576726 Z"/><path stroke="url(#r)" stroke-linejoin="square" stroke-width="2" d="M2852.79183,20.916766 C2877.062,33.8965981 2896.1034,52.9379951 2909.08323,77.2081711 C2923.85224,104.823807 2929,131.481108 2929,192.29139 L2929,2049.70861 C2929,2110.51889 2923.85224,2137.17619 2909.08323,2164.79183 C2896.1034,2189.062 2877.062,2208.1034 2852.79183,2221.08323 C2825.17619,2235.85224 2798.51889,2241 2737.70861,2241 L192.29139,2241 C131.481108,2241 104.823807,2235.85224 77.2081711,2221.08323 C52.9379951,2208.1034 33.8965981,2189.062 20.916766,2164.79183 C6.14776223,2137.17619 1,2110.51889 1,2049.70861 L1,192.29139 C1,131.481108 6.14776223,104.823807 20.916766,77.2081711 C33.8965981,52.9379951 52.9379951,33.8965981 77.2081711,20.916766 C104.823807,6.14776223 131.481108,1 192.29139,1 L2737.70861,1 C2798.51889,1 2825.17619,6.14776223 2852.79183,20.916766 Z"/><path stroke="url(#s)" stroke-linejoin="square" d="M2853.02763,20.4758594 C2877.38494,33.5022914 2896.49771,52.6150615 2909.52414,76.9723717 C2924.33718,104.670346 2929.5,131.405625 2929.5,192.29139 L2929.5,2049.70861 C2929.5,2110.59437 2924.33718,2137.32965 2909.52414,2165.02763 C2896.49771,2189.38494 2877.38494,2208.49771 2853.02763,2221.52414 C2825.32965,2236.33718 2798.59437,2241.5 2737.70861,2241.5 L192.29139,2241.5 C131.405625,2241.5 104.670346,2236.33718 76.9723717,2221.52414 C52.6150615,2208.49771 33.5022914,2189.38494 20.4758594,2165.02763 C5.66282063,2137.32965 0.5,2110.59437 0.5,2049.70861 L0.5,192.29139 C0.5,131.405625 5.66282063,104.670346 20.4758594,76.9723717 C33.5022914,52.6150615 52.6150615,33.5022914 76.9723717,20.4758594 C104.670346,5.66282063 131.405625,0.5 192.29139,0.5 L2737.70861,0.5 C2798.59437,0.5 2825.32965,5.66282063 2853.02763,20.4758594 Z"/><path stroke="#909192" stroke-opacity=".1" d="M2853.49923,19.5940462 C2878.03081,32.713678 2897.28632,51.9691941 2910.40595,76.5007728 C2925.30706,104.363424 2930.5,131.254661 2930.5,192.29139 L2930.5,2049.70861 C2930.5,2110.74534 2925.30706,2137.63658 2910.40595,2165.49923 C2897.28632,2190.03081 2878.03081,2209.28632 2853.49923,2222.40595 C2825.63658,2237.30706 2798.74534,2242.5 2737.70861,2242.5 L192.29139,2242.5 C131.254661,2242.5 104.363424,2237.30706 76.5007728,2222.40595 C51.9691941,2209.28632 32.713678,2190.03081 19.5940462,2165.49923 C4.69293742,2137.63658 -0.5,2110.74534 -0.5,2049.70861 L-0.5,192.29139 C-0.5,131.254661 4.69293742,104.363424 19.5940462,76.5007728 C32.713678,51.9691941 51.9691941,32.713678 76.5007728,19.5940462 C104.363424,4.69293742 131.254661,-0.5 192.29139,-0.5 L2737.70861,-0.5 C2798.74534,-0.5 2825.63658,4.69293742 2853.49923,19.5940462 Z"/></g><g transform="translate(5 5)"><use xlink:href="#t" fill="url(#u)"/><use xlink:href="#t" fill="#000" filter="url(#v)"/><use xlink:href="#w" fill="url(#u)"/><use xlink:href="#w" fill="#000" filter="url(#x)"/><g transform="matrix(1 0 0 -1 0 4464)"><use xlink:href="#y" fill="url(#z)"/><use xlink:href="#y" fill="#000" filter="url(#A)"/></g><g transform="matrix(1 0 0 -1 0 4464)"><use xlink:href="#B" fill="url(#z)"/><use xlink:href="#B" fill="#000" filter="url(#C)"/></g></g><g transform="translate(1367 39)"><circle cx="13" cy="13" r="13" fill="#08080C"/><use xlink:href="#D" fill="#000" filter="url(#E)"/><use xlink:href="#D" fill="url(#F)"/><use xlink:href="#G" fill="url(#H)"/><use xlink:href="#G" fill="url(#I)"/><use xlink:href="#G" fill="#000" filter="url(#J)"/><use xlink:href="#K" fill="#090B0D"/><use xlink:href="#K" fill="url(#L)" fill-opacity=".5"/><use xlink:href="#K" fill="url(#M)" fill-opacity=".5"/></g></g></svg>