<?xml version="1.0" encoding="UTF-8"?>
<svg width="2720px" height="1600px" viewBox="0 0 2720 1600" version="1.1" xmlns="http://www.w3.org/2000/svg" xmlns:xlink="http://www.w3.org/1999/xlink">
    <title>Windows Laptop / Lenovo / ThinkPad P14s Gen 5</title>
    <defs>
        <path d="M0,0 L1920,0 L1920,1200 L0,1200 L0,0 Z" id="path-1"></path>
        <linearGradient x1="50%" y1="0%" x2="50%" y2="100%" id="linearGradient-2">
            <stop stop-color="#616161" offset="0%"></stop>
            <stop stop-color="#6B6B6B" offset="9.12552506%"></stop>
            <stop stop-color="#606060" offset="100%"></stop>
        </linearGradient>
        <linearGradient x1="50%" y1="0%" x2="50%" y2="100%" id="linearGradient-3">
            <stop stop-color="#2B2B2B" stop-opacity="0.5" offset="0%"></stop>
            <stop stop-color="#0A0A0A" stop-opacity="0.5" offset="99.8072917%"></stop>
        </linearGradient>
        <path d="M1243.45141,-71 C1246.03978,-71 1248.58614,-70.3455684 1250.85377,-69.097543 L1282.29949,-51.7908653 C1284.56711,-50.5428399 1287.11347,-49.8884083 1289.70185,-49.8884083 L1933.05247,-49.8951935 C1946.83061,-49.8951935 1958,-38.7258056 1958,-24.9476673 L1957.6339,1271.05247 C1957.63015,1284.82796 1946.46186,1295.99321 1932.68637,1295.99321 L-13.0524738,1296.00679 C-26.830612,1296.00679 -38,1284.8374 -38,1271.05926 L-37.6338961,-24.9408812 C-37.630149,-38.7163689 -26.461859,-49.8816213 -12.6863708,-49.8816213 L629.705279,-49.8884083 C632.293655,-49.8884083 634.840014,-50.5428399 637.107639,-51.7908653 L668.553357,-69.097543 C670.820982,-70.3455684 673.367341,-71 675.955716,-71 L1243.45141,-71 Z M1920,-1.98951966e-13 L0,-1.98951966e-13 L0,1200 L1920,1200 L1920,-1.98951966e-13 Z" id="path-4"></path>
        <linearGradient x1="0%" y1="26.4964358%" x2="100%" y2="73.5035642%" id="linearGradient-5">
            <stop stop-color="#2B2B2B" offset="0%"></stop>
            <stop stop-color="#27292D" offset="3.24726923%"></stop>
            <stop stop-color="#1B191D" offset="53.4993282%"></stop>
            <stop stop-color="#161616" offset="90.0680673%"></stop>
            <stop stop-color="#0A0A0A" offset="100%"></stop>
        </linearGradient>
        <linearGradient x1="50%" y1="0%" x2="50%" y2="100%" id="linearGradient-6">
            <stop stop-color="#202020" stop-opacity="0.5" offset="0%"></stop>
            <stop stop-color="#0A0A0A" stop-opacity="0.5" offset="99.8072917%"></stop>
        </linearGradient>
        <linearGradient x1="50%" y1="0%" x2="50%" y2="99.8072917%" id="linearGradient-7">
            <stop stop-color="#3E3E3E" stop-opacity="0.5" offset="0%"></stop>
            <stop stop-color="#0A0A0A" stop-opacity="0.5" offset="100%"></stop>
        </linearGradient>
        <path d="M1242.96709,-68 C1245.55545,-68 1248.10179,-67.3455788 1250.3694,-66.0975724 L1282.67088,-48.3200794 C1284.37159,-47.3840746 1286.28134,-46.8932587 1288.22261,-46.8932587 L1932.41455,-46.8857693 C1944.07005,-46.8857693 1953.51986,-37.4393119 1953.52399,-25.7838121 L1954,1273.89055 C1954.00413,1285.54898 1944.55647,1295.00335 1932.89804,1295.00749 L-12.4145472,1294.99251 C-24.0700477,1294.99251 -33.5198566,1285.54605 -33.5239911,1273.89055 L-33.9999987,-25.7838121 C-34.0041342,-37.4422361 -24.5564668,-46.8966086 -12.8980428,-46.9007442 L630.342618,-46.8932587 C632.283884,-46.8932587 634.193639,-47.3840746 635.894348,-48.3200794 L668.195826,-66.0975724 C670.463438,-67.3455788 673.009777,-68 675.598132,-68 L1242.96709,-68 Z M1920,9.9475983e-14 L-3.55271368e-13,9.9475983e-14 L-3.55271368e-13,1200 L1920,1200 L1920,9.9475983e-14 Z" id="path-8"></path>
        <linearGradient x1="50%" y1="0%" x2="50%" y2="100%" id="linearGradient-9">
            <stop stop-color="#2E2E2E" offset="0%"></stop>
            <stop stop-color="#292929" offset="9.58737211%"></stop>
            <stop stop-color="#292929" offset="25.3755698%"></stop>
            <stop stop-color="#1E1E1E" offset="35.3551789%"></stop>
            <stop stop-color="#191919" offset="40.8657698%"></stop>
            <stop stop-color="#171717" offset="65.8417544%"></stop>
            <stop stop-color="#202020" offset="72.591637%"></stop>
            <stop stop-color="#242424" offset="85.5493303%"></stop>
            <stop stop-color="#2E2E2E" offset="89.1281398%"></stop>
            <stop stop-color="#2E2E2E" stop-opacity="0.5" offset="100%"></stop>
        </linearGradient>
        <linearGradient x1="50%" y1="0%" x2="50%" y2="100%" id="linearGradient-10">
            <stop stop-color="#2F2F2F" offset="0%"></stop>
            <stop stop-color="#2A2A2A" offset="33.9055536%"></stop>
            <stop stop-color="#292929" offset="37.0267281%"></stop>
            <stop stop-color="#262626" offset="38.7512861%"></stop>
            <stop stop-color="#282828" offset="47.0033151%"></stop>
            <stop stop-color="#2A2A2A" offset="48.5854482%"></stop>
            <stop stop-color="#292929" offset="52.5614351%"></stop>
            <stop stop-color="#292929" offset="76.4525823%"></stop>
            <stop stop-color="#2A2A2A" offset="77.411543%"></stop>
            <stop stop-color="#2A2A2A" offset="93.5073333%"></stop>
            <stop stop-color="#292929" offset="95.4931726%"></stop>
            <stop stop-color="#252525" offset="96.4587223%"></stop>
            <stop stop-color="#202020" offset="100%"></stop>
        </linearGradient>
        <linearGradient x1="100%" y1="50%" x2="0%" y2="50%" id="linearGradient-11">
            <stop stop-color="#4B4B4B" offset="0%"></stop>
            <stop stop-color="#464646" offset="0.356679304%"></stop>
            <stop stop-color="#262626" offset="0.488469401%"></stop>
            <stop stop-color="#2F2F2F" offset="1.08195874%"></stop>
            <stop stop-color="#343434" offset="36.1597012%"></stop>
            <stop stop-color="#3F3F3F" offset="56.2992364%"></stop>
            <stop stop-color="#474747" offset="80.1341109%"></stop>
            <stop stop-color="#414141" offset="98.5808733%"></stop>
            <stop stop-color="#4A4A4A" offset="99.1759823%"></stop>
            <stop stop-color="#777777" offset="99.2421124%"></stop>
            <stop stop-color="#787878" offset="99.4020566%"></stop>
            <stop stop-color="#727272" offset="99.5605357%"></stop>
            <stop stop-color="#474747" offset="99.6039191%"></stop>
            <stop stop-color="#3C3C3C" offset="99.8730981%"></stop>
            <stop stop-color="#676767" offset="100%"></stop>
        </linearGradient>
        <linearGradient x1="50%" y1="0%" x2="50%" y2="100%" id="linearGradient-12">
            <stop stop-color="#FFFFFF" stop-opacity="0.1" offset="0%"></stop>
            <stop stop-color="#FFFFFF" stop-opacity="0" offset="100%"></stop>
        </linearGradient>
        <path d="M4.92019948,6.61469885e-16 L2495.0798,0 C2496.79066,0 2497.41106,0.178136105 2498.03653,0.512638472 C2498.66199,0.847140839 2499.15286,1.33800947 2499.48736,1.96347451 C2499.82186,2.58893956 2500,3.20933893 2500,4.92019948 L2500,27.0798005 C2500,28.7906611 2499.82186,29.4110604 2499.48736,30.0365255 C2499.15286,30.6619905 2498.66199,31.1528592 2498.03653,31.4873615 C2497.41106,31.8218639 2496.79066,32 2495.0798,32 L4.92019948,32 C3.20933893,32 2.58893956,31.8218639 1.96347451,31.4873615 C1.33800947,31.1528592 0.847140839,30.6619905 0.512638472,30.0365255 C0.178136105,29.4110604 7.14983628e-14,28.7906611 7.14983628e-14,27.0798005 L4.5341707e-16,4.92019948 C-2.63448375e-16,3.20933893 0.178136105,2.58893956 0.512638472,1.96347451 C0.847140839,1.33800947 1.33800947,0.847140839 1.96347451,0.512638472 C2.58893956,0.178136105 3.20933893,1.01990261e-15 4.92019948,6.61469885e-16 Z" id="path-13"></path>
        <linearGradient x1="50%" y1="0%" x2="50%" y2="100%" id="linearGradient-14">
            <stop stop-color="#3A3A3A" offset="0%"></stop>
            <stop stop-color="#494949" offset="31.7208948%"></stop>
            <stop stop-color="#343434" offset="51.1399802%"></stop>
            <stop stop-color="#1B1B1B" offset="79.3788646%"></stop>
            <stop stop-color="#121212" offset="100%"></stop>
        </linearGradient>
        <radialGradient cx="45.3347013%" cy="45.5777744%" fx="45.3347013%" fy="45.5777744%" r="50%" id="radialGradient-15">
            <stop stop-color="#FFFFFF" stop-opacity="0.2" offset="0%"></stop>
            <stop stop-color="#FFFFFF" stop-opacity="0" offset="37.6026306%"></stop>
            <stop stop-color="#FFFFFF" stop-opacity="0" offset="100%"></stop>
        </radialGradient>
        <circle id="path-16" cx="19" cy="19" r="17"></circle>
        <linearGradient x1="100%" y1="13.9723428%" x2="0%" y2="100%" id="linearGradient-17">
            <stop stop-color="#434343" offset="0%"></stop>
            <stop stop-color="#9E9E9E" offset="40.8604618%"></stop>
            <stop stop-color="#ADADAD" offset="100%"></stop>
        </linearGradient>
    </defs>
    <g id="Windows-Laptop-/-Lenovo-/-ThinkPad-P14s-Gen-5" stroke="none" fill="none" transform="translate(400, 200)" xlink:href="#path-1">
        <g id="Top-Frame" stroke="url(#linearGradient-3)" stroke-linejoin="square">
            <path stroke-width="3.83808096" d="M1249.17338,-67.8013669 L1249.92847,-67.4163087 L1281.37419,-50.1096319 C1283.92527,-48.7056034 1286.78992,-47.9693678 1289.70185,-47.9693678 L1933.05249,-47.976153 C1945.77076,-47.976153 1956.08096,-37.6659488 1956.08096,-24.9476673 L1955.71486,1271.05193 C1955.7114,1283.76779 1945.40221,1294.07417 1932.68637,1294.07417 L-13.0524871,1294.08774 C-25.7707553,1294.08774 -36.0809595,1283.77754 -36.0809595,1271.05926 L-35.7148557,-24.9403391 C-35.7113968,-37.656194 -25.4022061,-47.9625808 -12.6863708,-47.9625808 L629.7053,-47.9693678 C632.617202,-47.9693678 635.481856,-48.7056034 638.032934,-50.1096319 L669.478652,-67.4163097 C671.462824,-68.5083319 673.690888,-69.0809595 675.955716,-69.0809595 L1243.45141,-69.0809595 C1245.43313,-69.0809595 1247.38671,-68.6425415 1249.17338,-67.8013669 Z M-1.91904048,-1.91904048 L-1.91904048,1201.91904 L1921.91904,1201.91904 L1921.91904,-1.91904048 Z" fill="url(#linearGradient-2)" fill-rule="evenodd"></path>
            <path stroke-width="1.91904048" d="M1249.58209,-68.6694868 L1250.39112,-68.2569249 L1281.83684,-50.9502486 C1284.24619,-49.6242217 1286.9517,-48.9288881 1289.70185,-48.9288881 L1933.05248,-48.9356733 C1946.30068,-48.9356733 1957.04048,-38.1958772 1957.04048,-24.9476673 L1956.67438,1271.0522 C1956.67077,1284.29787 1945.93203,1295.03369 1932.68637,1295.03369 L-13.0524805,1295.04726 C-26.3006837,1295.04726 -37.0404798,1284.30747 -37.0404798,1271.05926 L-36.6743759,-24.9406101 C-36.6707729,-38.1862814 -25.9320326,-48.922101 -12.6863708,-48.922101 L629.705289,-48.9288881 C632.455429,-48.9288881 635.160935,-49.6242217 637.570286,-50.9502486 L669.016004,-68.2569264 C671.141903,-69.4269501 673.529114,-70.0404798 675.955716,-70.0404798 L1243.45141,-70.0404798 C1245.57469,-70.0404798 1247.6678,-69.5707461 1249.58209,-68.6694868 Z M-0.95952024,-0.95952024 L-0.95952024,1200.95952 L1920.95952,1200.95952 L1920.95952,-0.95952024 Z"></path>
        </g>
        <g id="Bezel" stroke-linejoin="square">
            <path stroke="url(#linearGradient-6)" stroke-width="3.83808096" d="M1248.68902,-64.8013856 L1249.44411,-64.4163337 L1281.74559,-46.6388424 C1283.72975,-45.5468368 1285.9578,-44.9742182 1288.22261,-44.9742182 L1932.41452,-44.9667288 C1943.01046,-44.9667288 1951.60119,-36.3790403 1951.60495,-25.7831314 L1952.08096,1273.89126 C1952.08472,1284.4898 1943.49593,1293.08469 1932.89736,1293.08845 L-12.4145324,1293.07347 C-23.0104567,1293.07347 -31.6011921,1284.48578 -31.6049508,1273.88987 L-32.0809583,-25.784515 C-32.0847179,-36.3830601 -23.4959293,-44.9779442 -12.8973621,-44.9817038 L630.342595,-44.9742182 C632.607429,-44.9742182 634.835476,-45.5468368 636.819636,-46.6388424 L669.121114,-64.4163354 C671.105274,-65.508341 673.333321,-66.0809595 675.598132,-66.0809595 L1242.96709,-66.0809595 C1244.9488,-66.0809595 1246.90236,-65.6425485 1248.68902,-64.8013856 Z M-1.91904048,-1.91904048 L-1.91904048,1201.91904 L1921.91904,1201.91904 L1921.91904,-1.91904048 Z" fill="url(#linearGradient-5)" fill-rule="evenodd"></path>
            <path stroke="url(#linearGradient-7)" stroke-width="1.91904048" d="M1249.90676,-65.2569539 L1282.20823,-47.4794609 C1284.05067,-46.4654557 1286.11957,-45.9337385 1288.22261,-45.9337385 L1932.41454,-45.926249 C1943.54025,-45.926249 1952.56052,-36.9091761 1952.56447,-25.7834718 L1953.04048,1273.8909 C1953.04443,1285.01939 1944.0262,1294.04402 1932.8977,1294.04797 L-12.4145398,1294.03299 C-23.5402522,1294.03299 -32.5605243,1285.01592 -32.5644709,1273.89021 L-33.0404785,-25.7841635 C-33.0444261,-36.9126481 -24.0261981,-45.9372764 -12.8977025,-45.941224 L630.342607,-45.9337385 C632.445656,-45.9337385 634.514557,-46.4654557 636.356992,-47.4794609 L668.65847,-65.2569539 C670.784356,-66.4269599 673.171549,-67.0404798 675.598132,-67.0404798 L1242.96709,-67.0404798 C1245.39368,-67.0404798 1247.78087,-66.4269599 1249.90676,-65.2569539 Z M-0.95952024,-0.95952024 L-0.95952024,1200.95952 L1920.95952,1200.95952 L1920.95952,-0.95952024 Z"></path>
        </g>
        <g id="Body" stroke-width="1" fill-rule="evenodd" transform="translate(-290, 1264)">
            <path d="M170,96 L300,96 L298.750939,100.573484 C297.79166,104.085922 297.162887,105.284642 296.231226,106.468771 C295.299564,107.652899 294.143323,108.535707 292.755573,109.122482 C291.367824,109.709257 290.045797,110 286.404721,110 L183.595279,110 C179.954203,110 178.632176,109.709257 177.244427,109.122482 C175.856677,108.535707 174.700436,107.652899 173.768774,106.468771 C172.837113,105.284642 172.20834,104.085922 171.249061,100.573484 L170,96 L170,96 Z" id="Foot-L" fill="url(#linearGradient-9)"></path>
            <path d="M2200,96 L2330,96 L2328.75094,100.573484 C2327.79166,104.085922 2327.16289,105.284642 2326.23123,106.468771 C2325.29956,107.652899 2324.14332,108.535707 2322.75557,109.122482 C2321.36782,109.709257 2320.0458,110 2316.40472,110 L2213.59528,110 C2209.9542,110 2208.63218,109.709257 2207.24443,109.122482 C2205.85668,108.535707 2204.70044,107.652899 2203.76877,106.468771 C2202.83711,105.284642 2202.20834,104.085922 2201.24906,100.573484 L2200,96 L2200,96 Z" id="Foot-R" fill="url(#linearGradient-9)"></path>
            <path d="M108.616769,96 L106.562818,95.9877036 C102.397882,95.9474818 100.456799,95.805003 98.5429954,95.5080366 L98.0585071,95.4296504 C95.571772,95.0118738 93.368319,94.3288936 91.0847756,93.2680789 L90.7886898,93.1291073 L90.4948387,92.9880778 L89.8984268,92.690861 C88.0211514,91.7304896 85.9237458,90.4154821 81.3848227,87.2962101 L3.30928558,33.2891275 C1.23683578,31.8555547 -9.76996262e-15,29.4960929 -9.76996262e-15,26.9761367 L1.77635684e-15,15.3523238 C0,6.87346951 6.87346951,0 15.3523238,-1.77635684e-15 L2484.64768,0 C2493.12653,1.77635684e-15 2500,6.87346951 2500,15.3523238 L2500,26.9761367 C2500,29.4960929 2498.76316,31.8555547 2496.69071,33.2891275 L2418.61518,87.2962101 C2414.07625,90.4154821 2411.97885,91.7304896 2410.10157,92.690861 L2409.50516,92.9880778 L2409.21131,93.1291073 L2408.91522,93.2680789 C2406.63168,94.3288936 2404.42823,95.0118738 2401.94149,95.4296504 L2401.457,95.5080366 C2399.5432,95.805003 2397.60212,95.9474818 2393.43718,95.9877036 L2391.38323,96 L108.616769,96 Z" id="Bottom-Frame" fill="url(#linearGradient-10)"></path>
            <g id="Top-Frame" stroke="url(#linearGradient-12)" stroke-linejoin="square">
                <path stroke-width="1.91904048" d="M2497.48034,1.30555366 L2497.58402,1.35875836 C2498.04227,1.60383136 2498.39617,1.95773224 2498.64124,2.41598316 C2498.93689,2.96879322 2499.04048,3.50522517 2499.04048,4.92019948 L2499.04048,27.0798005 C2499.04048,28.4947748 2498.93689,29.0312068 2498.64124,29.5840168 C2498.39617,30.0422678 2498.04227,30.3961686 2497.58402,30.6412439 C2497.03121,30.93689 2496.49477,31.0404798 2495.0798,31.0404798 L4.92019948,31.0404798 C3.50522517,31.0404798 2.96879322,30.93689 2.41598316,30.6412439 C1.95773224,30.3961686 1.60383136,30.0422678 1.35875608,29.5840168 C1.06311003,29.0312068 0.95952024,28.4947748 0.95952024,27.0798005 L0.95952024,4.92019948 C0.95952024,3.50522517 1.06311003,2.96879322 1.35875608,2.41598316 C1.60383136,1.95773224 1.95773224,1.60383136 2.41598316,1.35875608 C2.96879322,1.06311003 3.50522517,0.95952024 4.92019948,0.95952024 L2495.0798,0.95952024 C2496.40634,0.95952024 2496.96072,1.05056595 2497.48034,1.30555366 Z" fill="url(#linearGradient-11)" fill-rule="evenodd"></path>
                <path stroke-width="0.95952024" d="M2497.69183,0.874894441 L2497.81027,0.93569746 C2498.35213,1.2254861 2498.77451,1.64787086 2499.0643,2.18972884 C2499.4022,2.82154416 2499.52024,3.43279832 2499.52024,4.92019948 L2499.52024,27.0798005 C2499.52024,28.5672017 2499.4022,29.1784558 2499.0643,29.8102712 C2498.77451,30.3521291 2498.35213,30.7745139 2497.81027,31.0643027 C2497.17846,31.4022013 2496.5672,31.5202399 2495.0798,31.5202399 L4.92019948,31.5202399 C3.43279832,31.5202399 2.82154416,31.4022013 2.18972884,31.0643027 C1.64787086,30.7745139 1.2254861,30.3521291 0.935697278,29.8102712 C0.597798744,29.1784558 0.47976012,28.5672017 0.47976012,27.0798005 L0.47976012,4.92019948 C0.47976012,3.43279832 0.597798744,2.82154416 0.935697278,2.18972884 C1.2254861,1.64787086 1.64787086,1.2254861 2.18972884,0.935697278 C2.82154416,0.597798744 3.43279832,0.47976012 4.92019948,0.47976012 L2495.0798,0.47976012 C2496.47424,0.47976012 2497.09863,0.583505004 2497.69183,0.874894441 Z"></path>
            </g>
        </g>
        <g id="Camera" stroke-width="1" fill-rule="evenodd" transform="translate(941, -54)">
            <path d="M83,1.91904048 C92.4335535,1.91904048 100.08096,9.56644655 100.08096,19 C100.08096,28.4335535 92.4335535,36.0809595 83,36.0809595 L19,36.0809595 C9.56644655,36.0809595 1.91904048,28.4335535 1.91904048,19 C1.91904048,10.2169442 8.58032932,2.88789538 17.2512523,2.0073152 L19.0967799,1.91659861 Z" id="Housing" stroke="#2B2B2B" stroke-width="3.83808096" fill="#313131" opacity="0.5"></path>
            <g stroke-linejoin="square">
                <circle stroke="url(#radialGradient-15)" stroke-width="11.5142429" fill="url(#linearGradient-14)" fill-rule="evenodd" cx="19" cy="19" r="11.2428786"></circle>
                <circle stroke-opacity="0.2" stroke="#1B1B1B" stroke-width="5.75712144" cx="19" cy="19" r="14.1214393"></circle>
                <circle stroke="#1B1B1B" stroke-width="2.87856072" cx="19" cy="19" r="15.5607196"></circle>
            </g>
            <circle id="Flash" fill="url(#linearGradient-17)" cx="82" cy="20" r="6"></circle>
        </g>
    </g>
</svg>